<?xml version="1.0" encoding="utf-8"?>
<!-- Generator: Adobe Illustrator 19.0.0, SVG Export Plug-In . SVG Version: 6.00 Build 0)  -->
<svg version="1.1" id="Layer_1" xmlns="http://www.w3.org/2000/svg" xmlns:xlink="http://www.w3.org/1999/xlink" x="0px" y="0px"
	 viewBox="-241.9 368.1 89.9 81.5" style="enable-background:new -241.9 368.1 89.9 81.5;" xml:space="preserve">
<style type="text/css">
	.st0{display:none;}
	.st1{display:inline;}
</style>
<g class="st0">
	<path class="st1" d="M-152.1,391.1l-22.9,8.6v-7.9c0-4.3-3.5-7.9-7.9-7.9h-51.2c-4.3,0-7.9,3.5-7.9,7.9v34c0,4.3,3.5,7.9,7.9,7.9
		h51.2c4.3,0,7.9-3.5,7.9-7.9v-7.6l22.9,8.4C-152.1,426.6-152.1,391.1-152.1,391.1z M-178.1,425.9c0,2.6-2.1,4.7-4.7,4.7h-51.2
		c-2.6,0-4.7-2.1-4.7-4.7v-34c0-2.6,2.1-4.7,4.7-4.7h51.2c2.6,0,4.7,2.1,4.7,4.7L-178.1,425.9L-178.1,425.9z M-155.2,422.1
		l-19.6-7.1v-11.9l19.6-7.4V422.1z"/>
</g>
<g>
	<path d="M-159.8,385.8c-1.8-1.5-3.5-2.7-4.8-3.3c0.3-0.6,0.4-1.3,0.4-2c0-2.6-2.1-4.7-4.7-4.7c-0.8,0-1.5,0.2-2.2,0.5
		c-0.8-1.2-2.2-2.8-4-4.3c-3.2-2.7-6.3-4.3-7-3.5c-0.7,0.8,1.4,3.6,4.6,6.3c1.7,1.4,3.4,2.6,4.6,3.2c-0.4,0.7-0.7,1.6-0.7,2.5
		c0,0.6,0.1,1.2,0.3,1.7c-7,7.5-14.3,11.8-17.7,13.6c-2-1-4.3-1.6-6.6-1.6c-2,0-3.8,0.4-5.6,1.1c-6.5-2.9-14.3-10-17.9-13.5
		c0.1-0.4,0.2-0.8,0.2-1.3c0-0.8-0.2-1.5-0.5-2.1c1.3-0.7,2.9-2,4.6-3.6c3-2.9,4.8-5.9,4.1-6.6c-0.7-0.7-3.7,1.1-6.7,4
		c-1.6,1.6-2.9,3.2-3.6,4.4c-0.7-0.5-1.6-0.8-2.6-0.8c-2.6,0-4.7,2.1-4.7,4.7c0,0.8,0.2,1.5,0.5,2.1c-1.3,0.7-2.9,2-4.6,3.6
		c-3,2.9-4.8,5.9-4.1,6.6c0.7,0.7,3.7-1.1,6.7-4c1.6-1.6,2.9-3.2,3.6-4.4c0.7,0.5,1.6,0.8,2.6,0.8c0.5,0,1.1-0.1,1.6-0.3
		c7.4,6.5,11.7,13.3,13.6,16.7c-1.2,2.1-1.9,4.6-1.9,7.2c0,2.1,0.5,4.2,1.3,6c-2.8,6.4-9.7,14-13.2,17.6c-0.4-0.1-0.9-0.2-1.4-0.2
		c-0.9,0-1.7,0.2-2.3,0.6c-0.7-1.3-2.2-2.9-4.1-4.6c-3.1-2.8-6.2-4.4-6.9-3.7c-0.7,0.8,1.3,3.6,4.5,6.4c1.8,1.6,3.6,2.8,4.9,3.4
		c-0.4,0.7-0.7,1.6-0.7,2.5c0,2.6,2.1,4.7,4.7,4.7c0.9,0,1.7-0.2,2.4-0.7c0.8,1.2,2.1,2.6,3.7,4.1c3.1,2.8,6.2,4.4,6.9,3.7
		c0.7-0.8-1.3-3.6-4.5-6.4c-1.6-1.4-3.2-2.5-4.4-3.2c0.3-0.6,0.5-1.4,0.5-2.1c0-0.5-0.1-1-0.2-1.5c6.6-7.4,13.4-11.8,16.7-13.6
		c2,1.1,4.3,1.7,6.8,1.7c2.5,0,4.8-0.6,6.8-1.7c6.4,3.3,13.8,10.5,17.1,13.8c-0.1,0.4-0.2,0.8-0.2,1.3c0,0.8,0.2,1.6,0.6,2.2
		c-1.2,0.7-2.8,2-4.3,3.6c-2.9,3-4.7,6-4,6.7c0.7,0.7,3.7-1.2,6.6-4.2c1.5-1.6,2.7-3.1,3.4-4.4c0.7,0.4,1.5,0.7,2.4,0.7
		c2.6,0,4.7-2.1,4.7-4.7c0-0.8-0.2-1.5-0.5-2.2c1.3-0.7,3-2.1,4.7-3.8c2.9-3,4.7-6,4-6.7c-0.7-0.7-3.7,1.2-6.6,4.2
		c-1.6,1.7-2.9,3.4-3.6,4.6c-0.7-0.5-1.6-0.8-2.6-0.8c-0.5,0-1,0.1-1.5,0.3c-7.6-7-11.9-14.3-13.5-17.6c0.8-1.9,1.3-3.9,1.3-6.1
		c0-2.3-0.5-4.4-1.4-6.3c3.4-6.7,11.3-14.5,14.4-17.4c0.3,0.1,0.7,0.1,1.1,0.1c1,0,1.9-0.3,2.7-0.9c0.8,1.2,2.2,2.7,4,4.2
		c3.2,2.7,6.3,4.3,7,3.5C-154.6,391.4-156.6,388.6-159.8,385.8z M-225.4,381.6c-0.6,0-1-0.5-1-1c0-0.6,0.5-1,1-1
		c0.6,0,1.1,0.5,1.1,1C-224.4,381.1-224.8,381.6-225.4,381.6z M-225.4,438c-0.6,0-1-0.5-1-1c0-0.6,0.5-1.1,1-1.1
		c0.6,0,1.1,0.5,1.1,1.1C-224.3,437.5-224.8,438-225.4,438z M-169.2,436c0.6,0,1.1,0.5,1.1,1c0,0.6-0.5,1.1-1.1,1.1
		c-0.6,0-1-0.5-1-1.1C-170.3,436.4-169.8,436-169.2,436z M-168.8,381.6c-0.6,0-1.1-0.5-1.1-1c0-0.6,0.5-1.1,1.1-1.1
		c0.6,0,1,0.5,1,1.1C-167.8,381.1-168.3,381.6-168.8,381.6z"/>
</g>
</svg>
