<svg xmlns="http://www.w3.org/2000/svg" xmlns:xlink="http://www.w3.org/1999/xlink" width="500" zoomAndPan="magnify" viewBox="0 0 375 68.999997" height="92" preserveAspectRatio="xMidYMid meet" version="1.0"><defs><g/><clipPath id="6d56bc8fea"><path d="M 38.527344 68.773438 L 336.472656 68.773438 L 375 0 L 0 0 L 38.527344 68.773438 " clip-rule="nonzero"/></clipPath></defs><g clip-path="url(#6d56bc8fea)"><rect x="-37.5" width="450" fill="#24392a" y="-6.9" height="82.799996" fill-opacity="1"/></g><g fill="#fae8e0" fill-opacity="1"><g transform="translate(20.380819, 27.917328)"><g><path d="M 2.175781 0 L 7.335938 0 C 7.070312 -0.96875 6.855469 -2.769531 6.855469 -4.621094 L 6.855469 -13.574219 L 7.070312 -13.574219 L 14.703125 0 L 16.261719 0 L 23.894531 -13.574219 L 24.1875 -13.574219 L 24.1875 -4.621094 C 24.1875 -2.769531 23.972656 -0.96875 23.707031 0 L 28.867188 0 C 28.570312 -1.046875 28.382812 -2.6875 28.382812 -4.515625 L 28.382812 -14.296875 C 28.382812 -16.125 28.542969 -17.765625 28.867188 -18.8125 L 23.382812 -18.8125 L 18.0625 -9.273438 C 17.175781 -7.660156 16.503906 -6.421875 15.722656 -4.675781 L 15.425781 -4.675781 C 14.621094 -6.449219 13.949219 -7.742188 13.089844 -9.273438 L 7.792969 -18.8125 L 2.175781 -18.8125 C 2.5 -17.765625 2.660156 -16.125 2.660156 -14.296875 L 2.660156 -4.515625 C 2.660156 -2.6875 2.472656 -1.046875 2.175781 0 Z M 2.175781 0 "/></g></g></g><g fill="#fae8e0" fill-opacity="1"><g transform="translate(56.767427, 27.917328)"><g><path d="M 12.847656 0.375 C 19.566406 0.375 24.484375 -3.304688 24.484375 -9.40625 C 24.484375 -15.507812 19.566406 -19.191406 12.847656 -19.191406 C 6.128906 -19.191406 1.210938 -15.507812 1.210938 -9.40625 C 1.210938 -3.304688 6.128906 0.375 12.847656 0.375 Z M 12.847656 -2.957031 C 8.628906 -2.957031 5.457031 -5.429688 5.457031 -9.40625 C 5.457031 -13.410156 8.628906 -15.855469 12.847656 -15.855469 C 17.066406 -15.855469 20.238281 -13.410156 20.238281 -9.40625 C 20.238281 -5.429688 17.066406 -2.957031 12.847656 -2.957031 Z M 12.847656 -2.957031 "/></g></g></g><g fill="#fae8e0" fill-opacity="1"><g transform="translate(87.806336, 27.917328)"><g><path d="M 2.175781 0 L 7.335938 0 C 7.09375 -0.941406 6.855469 -2.929688 6.855469 -4.8125 L 6.855469 -13.625 L 7.175781 -13.625 L 20.238281 0 L 24.082031 0 L 24.082031 -14.296875 C 24.082031 -16.125 24.269531 -17.765625 24.566406 -18.8125 L 19.40625 -18.8125 C 19.648438 -17.953125 19.890625 -16.234375 19.890625 -14.378906 L 19.890625 -5.617188 L 19.539062 -5.617188 L 7.042969 -18.8125 L 2.175781 -18.8125 C 2.5 -17.765625 2.6875 -16.125 2.6875 -14.296875 L 2.6875 -4.515625 C 2.6875 -2.6875 2.472656 -1.046875 2.175781 0 Z M 2.175781 0 "/></g></g></g><g fill="#fae8e0" fill-opacity="1"><g transform="translate(119.893292, 27.917328)"><g><path d="M -0.324219 0 L 4.945312 0 C 5.054688 -0.699219 5.507812 -1.585938 6.15625 -2.957031 L 6.933594 -4.40625 L 17.605469 -4.40625 L 18.382812 -2.984375 C 19.164062 -1.585938 19.484375 -0.726562 19.59375 0 L 24.859375 0 C 24.136719 -1.046875 23.085938 -2.769531 22.199219 -4.515625 L 17.039062 -14.324219 C 16.3125 -15.804688 15.832031 -17.605469 15.589844 -18.8125 L 9.003906 -18.8125 C 8.816406 -17.765625 8.359375 -16.074219 7.472656 -14.296875 L 2.363281 -4.515625 C 1.453125 -2.796875 0.402344 -1.046875 -0.324219 0 Z M 8.492188 -7.605469 L 10.964844 -12.390625 C 11.449219 -13.4375 11.773438 -14.296875 12.148438 -15.375 L 12.390625 -15.375 C 12.738281 -14.324219 13.089844 -13.410156 13.546875 -12.417969 L 16.046875 -7.605469 Z M 8.492188 -7.605469 "/></g></g></g><g fill="#fae8e0" fill-opacity="1"><g transform="translate(149.776681, 27.917328)"><g><path d="M 2.175781 0 L 13.035156 0 C 19.648438 0 23.972656 -3.546875 23.972656 -9.40625 C 23.972656 -15.265625 19.648438 -18.8125 13.035156 -18.8125 L 2.175781 -18.8125 C 2.472656 -17.765625 2.6875 -16.125 2.6875 -14.296875 L 2.6875 -4.515625 C 2.6875 -2.6875 2.5 -1.046875 2.175781 0 Z M 6.855469 -3.683594 L 6.855469 -15.160156 L 12.738281 -15.160156 C 16.796875 -15.160156 19.671875 -13.007812 19.671875 -9.40625 C 19.671875 -5.804688 16.796875 -3.683594 12.738281 -3.683594 Z M 6.855469 -3.683594 "/></g></g></g><g fill="#fae8e0" fill-opacity="1"><g transform="translate(180.305008, 27.917328)"><g><path d="M 2.175781 0 L 7.335938 0 C 7.042969 -1.046875 6.855469 -2.6875 6.855469 -4.515625 L 6.855469 -14.296875 C 6.855469 -16.125 7.042969 -17.765625 7.335938 -18.8125 L 2.175781 -18.8125 C 2.472656 -17.765625 2.660156 -16.125 2.660156 -14.296875 L 2.660156 -4.515625 C 2.660156 -2.6875 2.5 -1.046875 2.175781 0 Z M 2.175781 0 "/></g></g></g><g fill="#fae8e0" fill-opacity="1"><g transform="translate(195.193378, 27.917328)"><g><path d="M 20.777344 0.375 C 22.199219 0.375 23.382812 -0.296875 23.972656 -1.15625 L 23.8125 -6.019531 C 23.25 -4.890625 22.738281 -4.273438 21.152344 -4.273438 C 17.898438 -4.273438 19.054688 -9.917969 12.472656 -9.917969 L 12.066406 -9.917969 L 12.066406 -10.1875 L 13.144531 -10.1875 C 18.546875 -10.1875 21.3125 -11.851562 21.3125 -15.832031 C 21.3125 -17.199219 21.070312 -17.925781 20.5625 -18.8125 L 15.882812 -18.8125 C 16.503906 -17.953125 16.796875 -16.933594 16.796875 -15.855469 C 16.796875 -13.0625 14.621094 -11.582031 10.859375 -11.582031 L 6.878906 -11.582031 L 6.878906 -14.566406 C 6.878906 -16.367188 7.070312 -17.792969 7.335938 -18.8125 L 2.175781 -18.8125 C 2.5 -17.765625 2.6875 -16.125 2.6875 -14.296875 L 2.6875 -4.515625 C 2.6875 -2.6875 2.5 -1.046875 2.175781 0 L 7.335938 0 C 7.042969 -1.046875 6.878906 -2.796875 6.878906 -4.621094 L 6.878906 -8.117188 C 7.5 -8.332031 9.21875 -8.519531 10.214844 -8.519531 C 17.980469 -8.519531 13.707031 0.375 20.777344 0.375 Z M 20.777344 0.375 "/></g></g></g><g fill="#fae8e0" fill-opacity="1"><g transform="translate(224.996141, 27.917328)"><g><path d="M 12.605469 0.375 C 19.082031 0.375 22.738281 -2.875 22.738281 -8.222656 L 22.738281 -14.296875 C 22.738281 -16.125 22.925781 -17.765625 23.222656 -18.8125 L 18.0625 -18.8125 C 18.355469 -17.765625 18.546875 -16.046875 18.546875 -14.246094 L 18.546875 -8.84375 C 18.546875 -5.429688 16.125 -3.277344 12.605469 -3.277344 C 9.085938 -3.277344 6.691406 -5.429688 6.691406 -8.84375 L 6.691406 -14.246094 C 6.691406 -16.046875 6.878906 -17.765625 7.148438 -18.8125 L 2.015625 -18.8125 C 2.3125 -17.765625 2.5 -16.125 2.5 -14.296875 L 2.5 -8.222656 C 2.5 -2.742188 6.316406 0.375 12.605469 0.375 Z M 12.605469 0.375 "/></g></g></g><g fill="#fae8e0" fill-opacity="1"><g transform="translate(255.578215, 27.917328)"><g><path d="M 2.175781 0 L 7.335938 0 C 7.042969 -1.046875 6.855469 -2.6875 6.855469 -4.515625 L 6.855469 -14.296875 C 6.855469 -16.125 7.042969 -17.765625 7.335938 -18.8125 L 2.175781 -18.8125 C 2.472656 -17.765625 2.660156 -16.125 2.660156 -14.296875 L 2.660156 -4.515625 C 2.660156 -2.6875 2.5 -1.046875 2.175781 0 Z M 2.175781 0 "/></g></g></g><g fill="#fae8e0" fill-opacity="1"><g transform="translate(270.466585, 27.917328)"><g><path d="M 20.777344 0.375 C 22.199219 0.375 23.382812 -0.296875 23.972656 -1.15625 L 23.8125 -6.019531 C 23.25 -4.890625 22.738281 -4.273438 21.152344 -4.273438 C 17.898438 -4.273438 19.054688 -9.917969 12.472656 -9.917969 L 12.066406 -9.917969 L 12.066406 -10.1875 L 13.144531 -10.1875 C 18.546875 -10.1875 21.3125 -11.851562 21.3125 -15.832031 C 21.3125 -17.199219 21.070312 -17.925781 20.5625 -18.8125 L 15.882812 -18.8125 C 16.503906 -17.953125 16.796875 -16.933594 16.796875 -15.855469 C 16.796875 -13.0625 14.621094 -11.582031 10.859375 -11.582031 L 6.878906 -11.582031 L 6.878906 -14.566406 C 6.878906 -16.367188 7.070312 -17.792969 7.335938 -18.8125 L 2.175781 -18.8125 C 2.5 -17.765625 2.6875 -16.125 2.6875 -14.296875 L 2.6875 -4.515625 C 2.6875 -2.6875 2.5 -1.046875 2.175781 0 L 7.335938 0 C 7.042969 -1.046875 6.878906 -2.796875 6.878906 -4.621094 L 6.878906 -8.117188 C 7.5 -8.332031 9.21875 -8.519531 10.214844 -8.519531 C 17.980469 -8.519531 13.707031 0.375 20.777344 0.375 Z M 20.777344 0.375 "/></g></g></g><g fill="#fae8e0" fill-opacity="1"><g transform="translate(300.269348, 27.917328)"><g><path d="M 20.777344 0.375 C 22.199219 0.375 23.382812 -0.296875 23.972656 -1.15625 L 23.8125 -6.019531 C 23.25 -4.890625 22.738281 -4.273438 21.152344 -4.273438 C 17.898438 -4.273438 19.054688 -9.917969 12.472656 -9.917969 L 12.066406 -9.917969 L 12.066406 -10.1875 L 13.144531 -10.1875 C 18.546875 -10.1875 21.3125 -11.851562 21.3125 -15.832031 C 21.3125 -17.199219 21.070312 -17.925781 20.5625 -18.8125 L 15.882812 -18.8125 C 16.503906 -17.953125 16.796875 -16.933594 16.796875 -15.855469 C 16.796875 -13.0625 14.621094 -11.582031 10.859375 -11.582031 L 6.878906 -11.582031 L 6.878906 -14.566406 C 6.878906 -16.367188 7.070312 -17.792969 7.335938 -18.8125 L 2.175781 -18.8125 C 2.5 -17.765625 2.6875 -16.125 2.6875 -14.296875 L 2.6875 -4.515625 C 2.6875 -2.6875 2.5 -1.046875 2.175781 0 L 7.335938 0 C 7.042969 -1.046875 6.878906 -2.796875 6.878906 -4.621094 L 6.878906 -8.117188 C 7.5 -8.332031 9.21875 -8.519531 10.214844 -8.519531 C 17.980469 -8.519531 13.707031 0.375 20.777344 0.375 Z M 20.777344 0.375 "/></g></g></g><g fill="#fae8e0" fill-opacity="1"><g transform="translate(330.072111, 27.917328)"><g><path d="M -0.324219 0 L 4.945312 0 C 5.054688 -0.699219 5.507812 -1.585938 6.15625 -2.957031 L 6.933594 -4.40625 L 17.605469 -4.40625 L 18.382812 -2.984375 C 19.164062 -1.585938 19.484375 -0.726562 19.59375 0 L 24.859375 0 C 24.136719 -1.046875 23.085938 -2.769531 22.199219 -4.515625 L 17.039062 -14.324219 C 16.3125 -15.804688 15.832031 -17.605469 15.589844 -18.8125 L 9.003906 -18.8125 C 8.816406 -17.765625 8.359375 -16.074219 7.472656 -14.296875 L 2.363281 -4.515625 C 1.453125 -2.796875 0.402344 -1.046875 -0.324219 0 Z M 8.492188 -7.605469 L 10.964844 -12.390625 C 11.449219 -13.4375 11.773438 -14.296875 12.148438 -15.375 L 12.390625 -15.375 C 12.738281 -14.324219 13.089844 -13.410156 13.546875 -12.417969 L 16.046875 -7.605469 Z M 8.492188 -7.605469 "/></g></g></g><g fill="#fae8e0" fill-opacity="1"><g transform="translate(92.278129, 46.934194)"><g><path d="M 0.914062 0 L 3.085938 0 C 2.949219 -0.441406 2.882812 -1.109375 2.882812 -1.863281 L 2.894531 -4.273438 L 2.984375 -4.273438 C 3.265625 -2.722656 4.601562 -2.023438 6.40625 -2.023438 C 8.285156 -2.023438 9.675781 -3.128906 9.675781 -5.019531 C 9.675781 -6.882812 8.101562 -7.910156 5.976562 -7.910156 L 0.914062 -7.910156 C 1.039062 -7.46875 1.128906 -6.78125 1.128906 -6.011719 L 1.128906 -1.898438 C 1.128906 -1.128906 1.050781 -0.441406 0.914062 0 Z M 5.742188 -3.457031 C 4.316406 -3.457031 2.90625 -4.261719 2.894531 -5.640625 L 2.894531 -6.40625 C 3.785156 -6.5 4.691406 -6.507812 5.707031 -6.507812 C 7.109375 -6.507812 7.910156 -5.945312 7.910156 -5.019531 C 7.910156 -4.046875 6.894531 -3.457031 5.742188 -3.457031 Z M 5.742188 -3.457031 "/></g></g></g><g fill="#fae8e0" fill-opacity="1"><g transform="translate(109.026822, 46.934194)"><g><path d="M 9.085938 0.167969 C 9.664062 0.167969 10.207031 -0.0664062 10.464844 -0.417969 L 10.386719 -2.375 C 10.183594 -1.886719 9.910156 -1.582031 9.300781 -1.582031 C 8.058594 -1.582031 8.328125 -3.582031 5.957031 -3.582031 L 5.867188 -3.582031 L 5.867188 -3.671875 L 6.554688 -3.671875 C 8.375 -3.671875 9.605469 -4.566406 9.605469 -5.84375 C 9.605469 -7.175781 8.296875 -7.910156 6.398438 -7.910156 L 0.925781 -7.910156 C 1.050781 -7.46875 1.128906 -6.78125 1.128906 -6.011719 L 1.128906 -1.898438 C 1.128906 -1.128906 1.050781 -0.453125 0.925781 0 L 3.097656 0 C 2.960938 -0.453125 2.894531 -1.0625 2.894531 -1.820312 L 2.894531 -2.996094 C 3.152344 -3.074219 4.046875 -3.097656 4.375 -3.097656 C 7.617188 -3.097656 6.136719 0.167969 9.085938 0.167969 Z M 2.894531 -4.351562 L 2.894531 -6.386719 L 6.214844 -6.386719 C 7.1875 -6.386719 7.84375 -6 7.84375 -5.367188 C 7.84375 -4.710938 7.175781 -4.351562 6.136719 -4.351562 Z M 2.894531 -4.351562 "/></g></g></g><g fill="#fae8e0" fill-opacity="1"><g transform="translate(126.385798, 46.934194)"><g><path d="M 0.914062 0 L 8.882812 0 L 9.210938 -1.796875 C 8.882812 -1.617188 8.375 -1.503906 7.480469 -1.503906 L 2.882812 -1.503906 L 2.882812 -3.230469 L 6.519531 -3.230469 C 7.0625 -3.230469 7.4375 -3.210938 7.707031 -3.164062 L 7.707031 -4.769531 C 7.4375 -4.722656 7.0625 -4.703125 6.519531 -4.703125 L 2.882812 -4.703125 L 2.882812 -6.40625 L 7.402344 -6.40625 C 8.183594 -6.40625 8.679688 -6.328125 8.9375 -6.203125 L 8.65625 -7.910156 L 0.914062 -7.910156 C 1.039062 -7.46875 1.128906 -6.78125 1.128906 -6.011719 L 1.128906 -1.898438 C 1.128906 -1.128906 1.050781 -0.441406 0.914062 0 Z M 0.914062 0 "/></g></g></g><g fill="#fae8e0" fill-opacity="1"><g transform="translate(142.851954, 46.934194)"><g><path d="M 4.90625 0.160156 C 7.480469 0.160156 9.121094 -0.757812 9.121094 -2.273438 C 9.121094 -5.503906 2.394531 -4 2.394531 -5.71875 C 2.394531 -6.398438 3.527344 -6.578125 4.804688 -6.578125 C 6.136719 -6.578125 7.492188 -6.25 8.328125 -5.765625 L 8.328125 -7.4375 C 7.4375 -7.808594 6.023438 -8.070312 4.734375 -8.070312 C 2.441406 -8.070312 0.578125 -7.265625 0.578125 -5.742188 C 0.578125 -2.476562 7.289062 -3.910156 7.289062 -2.261719 C 7.289062 -1.558594 6.304688 -1.320312 4.871094 -1.320312 C 3.242188 -1.320312 1.683594 -1.683594 0.496094 -2.441406 L 0.417969 -0.644531 C 1.648438 -0.160156 3.539062 0.160156 4.90625 0.160156 Z M 4.90625 0.160156 "/></g></g></g><g fill="#fae8e0" fill-opacity="1"><g transform="translate(159.182497, 46.934194)"><g><path d="M 0.914062 0 L 8.882812 0 L 9.210938 -1.796875 C 8.882812 -1.617188 8.375 -1.503906 7.480469 -1.503906 L 2.882812 -1.503906 L 2.882812 -3.230469 L 6.519531 -3.230469 C 7.0625 -3.230469 7.4375 -3.210938 7.707031 -3.164062 L 7.707031 -4.769531 C 7.4375 -4.722656 7.0625 -4.703125 6.519531 -4.703125 L 2.882812 -4.703125 L 2.882812 -6.40625 L 7.402344 -6.40625 C 8.183594 -6.40625 8.679688 -6.328125 8.9375 -6.203125 L 8.65625 -7.910156 L 0.914062 -7.910156 C 1.039062 -7.46875 1.128906 -6.78125 1.128906 -6.011719 L 1.128906 -1.898438 C 1.128906 -1.128906 1.050781 -0.441406 0.914062 0 Z M 0.914062 0 "/></g></g></g><g fill="#fae8e0" fill-opacity="1"><g transform="translate(175.648656, 46.934194)"><g><path d="M 9.085938 0.167969 C 9.664062 0.167969 10.207031 -0.0664062 10.464844 -0.417969 L 10.386719 -2.375 C 10.183594 -1.886719 9.910156 -1.582031 9.300781 -1.582031 C 8.058594 -1.582031 8.328125 -3.582031 5.957031 -3.582031 L 5.867188 -3.582031 L 5.867188 -3.671875 L 6.554688 -3.671875 C 8.375 -3.671875 9.605469 -4.566406 9.605469 -5.84375 C 9.605469 -7.175781 8.296875 -7.910156 6.398438 -7.910156 L 0.925781 -7.910156 C 1.050781 -7.46875 1.128906 -6.78125 1.128906 -6.011719 L 1.128906 -1.898438 C 1.128906 -1.128906 1.050781 -0.453125 0.925781 0 L 3.097656 0 C 2.960938 -0.453125 2.894531 -1.0625 2.894531 -1.820312 L 2.894531 -2.996094 C 3.152344 -3.074219 4.046875 -3.097656 4.375 -3.097656 C 7.617188 -3.097656 6.136719 0.167969 9.085938 0.167969 Z M 2.894531 -4.351562 L 2.894531 -6.386719 L 6.214844 -6.386719 C 7.1875 -6.386719 7.84375 -6 7.84375 -5.367188 C 7.84375 -4.710938 7.175781 -4.351562 6.136719 -4.351562 Z M 2.894531 -4.351562 "/></g></g></g><g fill="#fae8e0" fill-opacity="1"><g transform="translate(193.007636, 46.934194)"><g><path d="M 3.785156 0 L 6.464844 0 C 6.53125 -0.453125 6.757812 -1.140625 7.097656 -1.898438 L 9.253906 -6.011719 C 9.59375 -6.78125 9.945312 -7.46875 10.261719 -7.910156 L 8.089844 -7.910156 C 8.035156 -7.59375 7.933594 -7.210938 7.671875 -6.609375 L 5.707031 -2.746094 C 5.515625 -2.316406 5.367188 -1.976562 5.210938 -1.535156 L 5.121094 -1.535156 C 4.960938 -1.957031 4.792969 -2.328125 4.609375 -2.746094 L 2.644531 -6.609375 C 2.375 -7.210938 2.28125 -7.59375 2.238281 -7.910156 L 0 -7.910156 C 0.304688 -7.46875 0.667969 -6.78125 1.003906 -6.011719 L 3.164062 -1.886719 C 3.425781 -1.265625 3.671875 -0.542969 3.785156 0 Z M 3.785156 0 "/></g></g></g><g fill="#fae8e0" fill-opacity="1"><g transform="translate(210.03887, 46.934194)"><g><path d="M -0.136719 0 L 2.078125 0 C 2.125 -0.292969 2.316406 -0.667969 2.589844 -1.242188 L 2.914062 -1.851562 L 7.402344 -1.851562 L 7.730469 -1.253906 C 8.058594 -0.667969 8.195312 -0.304688 8.238281 0 L 10.453125 0 C 10.148438 -0.441406 9.707031 -1.164062 9.335938 -1.898438 L 7.164062 -6.023438 C 6.859375 -6.644531 6.65625 -7.402344 6.554688 -7.910156 L 3.785156 -7.910156 C 3.707031 -7.46875 3.515625 -6.757812 3.140625 -6.011719 L 0.996094 -1.898438 C 0.609375 -1.175781 0.167969 -0.441406 -0.136719 0 Z M 3.570312 -3.199219 L 4.609375 -5.210938 C 4.8125 -5.652344 4.949219 -6.011719 5.109375 -6.464844 L 5.210938 -6.464844 C 5.355469 -6.023438 5.503906 -5.640625 5.695312 -5.222656 L 6.746094 -3.199219 Z M 3.570312 -3.199219 "/></g></g></g><g fill="#fae8e0" fill-opacity="1"><g transform="translate(227.126608, 46.934194)"><g><path d="M 3.539062 0 L 5.707031 0 C 5.570312 -0.453125 5.503906 -1.128906 5.503906 -1.898438 L 5.503906 -6.375 L 7.457031 -6.375 C 8.195312 -6.375 8.621094 -6.304688 8.996094 -6.183594 L 8.644531 -7.910156 L 0.585938 -7.910156 L 0.238281 -6.183594 C 0.621094 -6.316406 1.039062 -6.375 1.773438 -6.375 L 3.742188 -6.375 L 3.742188 -1.898438 C 3.742188 -1.128906 3.660156 -0.453125 3.539062 0 Z M 3.539062 0 "/></g></g></g><g fill="#fae8e0" fill-opacity="1"><g transform="translate(243.118112, 46.934194)"><g><path d="M 0.914062 0 L 3.085938 0 C 2.960938 -0.441406 2.882812 -1.128906 2.882812 -1.898438 L 2.882812 -6.011719 C 2.882812 -6.78125 2.960938 -7.46875 3.085938 -7.910156 L 0.914062 -7.910156 C 1.039062 -7.46875 1.117188 -6.78125 1.117188 -6.011719 L 1.117188 -1.898438 C 1.117188 -1.128906 1.050781 -0.441406 0.914062 0 Z M 0.914062 0 "/></g></g></g><g fill="#fae8e0" fill-opacity="1"><g transform="translate(253.899645, 46.934194)"><g><path d="M 5.402344 0.160156 C 8.226562 0.160156 10.296875 -1.390625 10.296875 -3.957031 C 10.296875 -6.519531 8.226562 -8.070312 5.402344 -8.070312 C 2.578125 -8.070312 0.507812 -6.519531 0.507812 -3.957031 C 0.507812 -1.390625 2.578125 0.160156 5.402344 0.160156 Z M 5.402344 -1.242188 C 3.628906 -1.242188 2.292969 -2.28125 2.292969 -3.957031 C 2.292969 -5.640625 3.628906 -6.667969 5.402344 -6.667969 C 7.175781 -6.667969 8.511719 -5.640625 8.511719 -3.957031 C 8.511719 -2.28125 7.175781 -1.242188 5.402344 -1.242188 Z M 5.402344 -1.242188 "/></g></g></g><g fill="#fae8e0" fill-opacity="1"><g transform="translate(271.473348, 46.934194)"><g><path d="M 0.914062 0 L 3.085938 0 C 2.984375 -0.394531 2.882812 -1.230469 2.882812 -2.023438 L 2.882812 -5.730469 L 3.015625 -5.730469 L 8.511719 0 L 10.125 0 L 10.125 -6.011719 C 10.125 -6.78125 10.207031 -7.46875 10.328125 -7.910156 L 8.160156 -7.910156 C 8.261719 -7.550781 8.363281 -6.824219 8.363281 -6.046875 L 8.363281 -2.363281 L 8.214844 -2.363281 L 2.960938 -7.910156 L 0.914062 -7.910156 C 1.050781 -7.46875 1.128906 -6.78125 1.128906 -6.011719 L 1.128906 -1.898438 C 1.128906 -1.128906 1.039062 -0.441406 0.914062 0 Z M 0.914062 0 "/></g></g></g><g fill="#fae8e0" fill-opacity="1"><g transform="translate(139.896916, 62.002686)"><g><path d="M -0.136719 0 L 2.078125 0 C 2.125 -0.292969 2.316406 -0.667969 2.589844 -1.242188 L 2.914062 -1.851562 L 7.402344 -1.851562 L 7.730469 -1.253906 C 8.058594 -0.667969 8.195312 -0.304688 8.238281 0 L 10.453125 0 C 10.148438 -0.441406 9.707031 -1.164062 9.335938 -1.898438 L 7.164062 -6.023438 C 6.859375 -6.644531 6.65625 -7.402344 6.554688 -7.910156 L 3.785156 -7.910156 C 3.707031 -7.46875 3.515625 -6.757812 3.140625 -6.011719 L 0.996094 -1.898438 C 0.609375 -1.175781 0.167969 -0.441406 -0.136719 0 Z M 3.570312 -3.199219 L 4.609375 -5.210938 C 4.8125 -5.652344 4.949219 -6.011719 5.109375 -6.464844 L 5.210938 -6.464844 C 5.355469 -6.023438 5.503906 -5.640625 5.695312 -5.222656 L 6.746094 -3.199219 Z M 3.570312 -3.199219 "/></g></g></g><g fill="#fae8e0" fill-opacity="1"><g transform="translate(156.984651, 62.002686)"><g><path d="M 5.558594 0.160156 C 7.390625 0.160156 8.996094 -0.441406 9.855469 -1.367188 L 9.855469 -4.621094 L 5.3125 -4.621094 L 5.234375 -3.085938 C 5.445312 -3.152344 5.945312 -3.199219 6.273438 -3.199219 L 8.183594 -3.199219 L 8.183594 -2.25 C 7.652344 -1.695312 6.632812 -1.355469 5.605469 -1.355469 C 3.617188 -1.355469 2.25 -2.339844 2.25 -3.933594 C 2.25 -5.558594 3.707031 -6.566406 5.773438 -6.566406 C 6.90625 -6.566406 8.136719 -6.328125 8.859375 -5.886719 L 8.949219 -7.480469 C 8.035156 -7.832031 6.894531 -8.070312 5.582031 -8.070312 C 2.609375 -8.070312 0.507812 -6.453125 0.507812 -3.933594 C 0.507812 -1.425781 2.566406 0.160156 5.558594 0.160156 Z M 5.558594 0.160156 "/></g></g></g><g fill="#fae8e0" fill-opacity="1"><g transform="translate(174.162804, 62.002686)"><g><path d="M 0.914062 0 L 8.882812 0 L 9.210938 -1.796875 C 8.882812 -1.617188 8.375 -1.503906 7.480469 -1.503906 L 2.882812 -1.503906 L 2.882812 -3.230469 L 6.519531 -3.230469 C 7.0625 -3.230469 7.4375 -3.210938 7.707031 -3.164062 L 7.707031 -4.769531 C 7.4375 -4.722656 7.0625 -4.703125 6.519531 -4.703125 L 2.882812 -4.703125 L 2.882812 -6.40625 L 7.402344 -6.40625 C 8.183594 -6.40625 8.679688 -6.328125 8.9375 -6.203125 L 8.65625 -7.910156 L 0.914062 -7.910156 C 1.039062 -7.46875 1.128906 -6.78125 1.128906 -6.011719 L 1.128906 -1.898438 C 1.128906 -1.128906 1.050781 -0.441406 0.914062 0 Z M 0.914062 0 "/></g></g></g><g fill="#fae8e0" fill-opacity="1"><g transform="translate(190.62896, 62.002686)"><g><path d="M 0.914062 0 L 3.085938 0 C 2.984375 -0.394531 2.882812 -1.230469 2.882812 -2.023438 L 2.882812 -5.730469 L 3.015625 -5.730469 L 8.511719 0 L 10.125 0 L 10.125 -6.011719 C 10.125 -6.78125 10.207031 -7.46875 10.328125 -7.910156 L 8.160156 -7.910156 C 8.261719 -7.550781 8.363281 -6.824219 8.363281 -6.046875 L 8.363281 -2.363281 L 8.214844 -2.363281 L 2.960938 -7.910156 L 0.914062 -7.910156 C 1.050781 -7.46875 1.128906 -6.78125 1.128906 -6.011719 L 1.128906 -1.898438 C 1.128906 -1.128906 1.039062 -0.441406 0.914062 0 Z M 0.914062 0 "/></g></g></g><g fill="#fae8e0" fill-opacity="1"><g transform="translate(208.643415, 62.002686)"><g><path d="M 5.71875 0.160156 C 7.152344 0.160156 8.375 -0.101562 9.289062 -0.53125 L 9.289062 -2.351562 C 8.519531 -1.75 7.300781 -1.378906 6.035156 -1.378906 C 3.910156 -1.378906 2.28125 -2.292969 2.28125 -3.945312 C 2.28125 -5.558594 3.863281 -6.53125 5.898438 -6.53125 C 7.109375 -6.53125 8.195312 -6.171875 8.828125 -5.683594 L 8.972656 -7.378906 C 8.183594 -7.785156 6.984375 -8.070312 5.683594 -8.070312 C 2.804688 -8.070312 0.507812 -6.589844 0.507812 -3.945312 C 0.507812 -1.289062 2.847656 0.160156 5.71875 0.160156 Z M 5.71875 0.160156 "/></g></g></g><g fill="#fae8e0" fill-opacity="1"><g transform="translate(225.075674, 62.002686)"><g><path d="M 3.945312 -0.0117188 L 6.070312 -0.0117188 C 5.96875 -0.394531 5.886719 -0.949219 5.886719 -1.660156 L 5.886719 -2.972656 L 8.679688 -6.386719 C 9.175781 -7.03125 9.640625 -7.570312 9.992188 -7.910156 L 7.628906 -7.910156 C 7.457031 -7.59375 7.253906 -7.199219 6.824219 -6.632812 L 5.050781 -4.429688 L 4.949219 -4.429688 L 3.175781 -6.632812 C 2.769531 -7.199219 2.554688 -7.59375 2.382812 -7.910156 L 0.0117188 -7.910156 C 0.371094 -7.570312 0.835938 -7.03125 1.332031 -6.386719 L 4.125 -2.984375 L 4.125 -1.671875 C 4.125 -0.960938 4.046875 -0.394531 3.945312 -0.0117188 Z M 3.945312 -0.0117188 "/></g></g></g></svg>